# xmcd
# 
# Track frame offsets:
#     150
#     9882
#     29297
#     49130
#     71270
#     97782
#     120907
#     146152
#     170250
#     193217
#     220482
#     247737
#     270622
#     300567
# 
# Disc length: 4128
# 
# Revision: 10
# Processed by: cddbd v1.5.2PL0 Copyright (c) Steve Scherf et al.
# Submitted via: fre:ac v1.0.17
# 
DISCID=b3101e0e
DTITLE=Tiesto - In Search of Sunrise 7 - Asia [CD 1)
DYEAR=2008
DGENRE=Trance
TTITLE0=Banyan Tree - Feel the Sun Rise
TTITLE1=Andy Duguid feat. Leah - Wasted
TTITLE2=King Unique - Yohkoh (King Unique Original Mix)
TTITLE3=Motorcitysoul - Space Katzle (Jerome Sydenham Remix)
TTITLE4=Three Drives - Feel the Rhythm (Ton TB Dub Mix)
TTITLE5=Rachael Starr - To Forever (Moonbeam Remix)
TTITLE6=Jerry Ropero feat. Cozi - The Storm (Inpetto Remix)
TTITLE7=Kamui - Get Lifted
TTITLE8=Cary Brothers - Ride (Tiësto Remix)
TTITLE9=Airbase feat. Floria Ambra - Denial
TTITLE10=Dokmai - Reason To Believe
TTITLE11=Cressida - 6AM (Kyau and Albert Remix)
TTITLE12=Allure feat. Christian Burns - Power of You
TTITLE13=Clouded Leopard - Hua-Hin
EXTD=YEAR: 2008
EXTT0=
EXTT1=
EXTT2=
EXTT3=
EXTT4=
EXTT5=
EXTT6=
EXTT7=
EXTT8=
EXTT9=
EXTT10=
EXTT11=
EXTT12=
EXTT13=
PLAYORDER=
